<svg width="32" height="32" viewBox="0 0 32 32" fill="none" xmlns="http://www.w3.org/2000/svg">
<g filter="url(#filter0_b_125_1029)">
<circle cx="16" cy="16" r="16" fill="white" fill-opacity="0.24"/>
</g>
<g clip-path="url(#clip0_125_1029)">
<path d="M21.7577 20.584L19.2218 18.0477C19.8381 17.1904 20.177 16.1659 20.177 15.0875C20.177 13.7292 19.6482 12.4517 18.6863 11.4907C17.7265 10.5301 16.4482 10 15.0891 10C13.7303 10 12.4524 10.5288 11.4918 11.4907C10.5312 12.4509 10.002 13.7287 10.002 15.0875C10.002 16.4463 10.5308 17.7238 11.4918 18.6852C12.4524 19.6458 13.7299 20.1759 15.0891 20.1759C16.167 20.1759 17.1907 19.8387 18.0488 19.2207L20.5847 21.7569C20.7473 21.9191 20.9588 22 21.1712 22C21.384 22 21.5959 21.9191 21.7577 21.7569C22.0816 21.4326 22.0816 20.9079 21.7577 20.584ZM12.6652 17.5118C12.0173 16.864 11.661 16.0025 11.661 15.0871C11.661 14.1717 12.0173 13.3111 12.6652 12.6632C13.3126 12.0153 14.1733 11.6586 15.0891 11.6586C16.0049 11.6586 16.8659 12.0153 17.5134 12.6632C18.1612 13.3111 18.5179 14.1721 18.5179 15.0875C18.5179 16.0029 18.1616 16.864 17.5134 17.5122C16.8655 18.1601 16.0053 18.516 15.0891 18.516C14.1728 18.516 13.3118 18.1593 12.6652 17.5118Z" fill="url(#paint0_linear_125_1029)"/>
</g>
<defs>
<filter id="filter0_b_125_1029" x="-8" y="-8" width="48" height="48" filterUnits="userSpaceOnUse" color-interpolation-filters="sRGB">
<feFlood flood-opacity="0" result="BackgroundImageFix"/>
<feGaussianBlur in="BackgroundImage" stdDeviation="4"/>
<feComposite in2="SourceAlpha" operator="in" result="effect1_backgroundBlur_125_1029"/>
<feBlend mode="normal" in="SourceGraphic" in2="effect1_backgroundBlur_125_1029" result="shape"/>
</filter>
<linearGradient id="paint0_linear_125_1029" x1="16.0013" y1="10" x2="16.0013" y2="22" gradientUnits="userSpaceOnUse">
<stop stop-color="#FFF5F5"/>
<stop offset="1" stop-color="#FFE1E2"/>
</linearGradient>
<clipPath id="clip0_125_1029">
<rect width="11.9996" height="12" fill="white" transform="translate(10 10)"/>
</clipPath>
</defs>
</svg>
