<svg width="40" height="40" viewBox="0 0 40 40" fill="none" xmlns="http://www.w3.org/2000/svg">
<g filter="url(#filter0_d_55_467)">
<circle cx="20" cy="16" r="12" fill="#FFEF61"/>
<path d="M25.5279 14.5012C25.5297 14.5342 25.5273 14.5678 25.519 14.6012L24.7788 17.5619C24.7415 17.7111 24.6078 17.816 24.4541 17.8168L20.013 17.8392C20.0124 17.8392 20.0118 17.8392 20.0113 17.8392H15.5701C15.4156 17.8392 15.281 17.734 15.2436 17.5841L14.5035 14.6121C14.4949 14.5778 14.4925 14.5433 14.4946 14.5094C14.2083 14.4192 14 14.1513 14 13.8355C14 13.4459 14.3169 13.1289 14.7065 13.1289C15.0961 13.1289 15.4131 13.4459 15.4131 13.8355C15.4131 14.0549 15.3126 14.2512 15.1551 14.3809L16.0819 15.3146C16.3161 15.5506 16.6411 15.6859 16.9736 15.6859C17.3667 15.6859 17.7416 15.4992 17.9776 15.1864L19.5006 13.1684C19.3727 13.0406 19.2935 12.8639 19.2935 12.6691C19.2935 12.2795 19.6104 11.9626 20 11.9626C20.3896 11.9626 20.7065 12.2795 20.7065 12.6691C20.7065 12.8581 20.6315 13.0296 20.5103 13.1565C20.5107 13.157 20.5112 13.1575 20.5116 13.1581L22.0235 15.1816C22.2595 15.4974 22.6357 15.6859 23.03 15.6859C23.3655 15.6859 23.6811 15.5553 23.9183 15.318L24.8509 14.3854C24.6901 14.2558 24.5869 14.0576 24.5869 13.8355C24.5869 13.4459 24.9039 13.1289 25.2935 13.1289C25.6831 13.1289 26 13.4459 26 13.8355C26 14.1428 25.8024 14.4042 25.5279 14.5012ZM24.7066 18.8934C24.7066 18.7076 24.5559 18.557 24.3701 18.557H15.6673C15.4815 18.557 15.3309 18.7076 15.3309 18.8934V19.7009C15.3309 19.8867 15.4815 20.0374 15.6673 20.0374H24.3701C24.5559 20.0374 24.7066 19.8867 24.7066 19.7009V18.8934Z" fill="#FE616B"/>
</g>
<defs>
<filter id="filter0_d_55_467" x="0" y="0" width="40" height="40" filterUnits="userSpaceOnUse" color-interpolation-filters="sRGB">
<feFlood flood-opacity="0" result="BackgroundImageFix"/>
<feColorMatrix in="SourceAlpha" type="matrix" values="0 0 0 0 0 0 0 0 0 0 0 0 0 0 0 0 0 0 127 0" result="hardAlpha"/>
<feOffset dy="4"/>
<feGaussianBlur stdDeviation="4"/>
<feColorMatrix type="matrix" values="0 0 0 0 0.996078 0 0 0 0 0.380392 0 0 0 0 0.419608 0 0 0 0.16 0"/>
<feBlend mode="normal" in2="BackgroundImageFix" result="effect1_dropShadow_55_467"/>
<feBlend mode="normal" in="SourceGraphic" in2="effect1_dropShadow_55_467" result="shape"/>
</filter>
</defs>
</svg>
