<svg width="40" height="40" viewBox="0 0 40 40" fill="none" xmlns="http://www.w3.org/2000/svg">
<g filter="url(#filter0_d_55_474)">
<circle cx="20" cy="16" r="12" fill="#FFEF61"/>
<path d="M20.0469 4C13.4517 4 8 9.35781 8 15.9531C8 22.5484 13.4517 28 20.0469 28C26.6421 28 32 22.5484 32 15.9531C32 9.35781 26.6421 4 20.0469 4Z" fill="#FEDB41"/>
<path d="M20.0469 6.8125C15.0124 6.8125 10.8125 10.9187 10.8125 15.9531C10.8125 20.9875 15.0124 25.1875 20.0469 25.1875C25.0813 25.1875 29.1875 20.9875 29.1875 15.9531C29.1875 10.9187 25.0813 6.8125 20.0469 6.8125Z" fill="#FFEF61"/>
<path d="M21.4531 15.25H20.75V12.4375H21.4531C21.8469 12.4375 22.1562 12.7468 22.1562 13.1406C22.1562 14.0687 23.5625 14.0687 23.5625 13.1406C23.5625 11.9734 22.6204 11.0312 21.4531 11.0312H20.75V10.3281C20.75 9.86402 20.3984 9.625 20.0469 9.625C19.6953 9.625 19.3438 9.86402 19.3438 10.3281V11.0312H18.5469C17.3796 11.0312 16.4375 11.9734 16.4375 13.1406V14.5469C16.4375 15.7141 17.3796 16.6562 18.5469 16.6562H19.3438V19.5625H18.5469C18.1531 19.5625 17.8438 19.2532 17.8438 18.8594C17.8438 17.9313 16.4375 17.9313 16.4375 18.8594C16.4375 20.0266 17.3796 20.9688 18.5469 20.9688H19.3438V21.6719C19.3438 22.136 19.6953 22.375 20.0469 22.375C20.3984 22.375 20.75 22.136 20.75 21.6719V20.9688H21.4531C22.6204 20.9688 23.5625 20.0266 23.5625 18.8594V17.3594C23.5625 16.1921 22.6204 15.25 21.4531 15.25ZM19.3438 15.25H18.5469C18.1531 15.25 17.8438 14.9407 17.8438 14.5469V13.1406C17.8438 12.7468 18.1531 12.4375 18.5469 12.4375H19.3438V15.25ZM22.1562 18.8594C22.1562 19.2532 21.8469 19.5625 21.4531 19.5625H20.75V16.6562H21.4531C21.8469 16.6562 22.1562 16.9656 22.1562 17.3594V18.8594Z" fill="#F4C703"/>
</g>
<defs>
<filter id="filter0_d_55_474" x="0" y="0" width="40" height="40" filterUnits="userSpaceOnUse" color-interpolation-filters="sRGB">
<feFlood flood-opacity="0" result="BackgroundImageFix"/>
<feColorMatrix in="SourceAlpha" type="matrix" values="0 0 0 0 0 0 0 0 0 0 0 0 0 0 0 0 0 0 127 0" result="hardAlpha"/>
<feOffset dy="4"/>
<feGaussianBlur stdDeviation="4"/>
<feColorMatrix type="matrix" values="0 0 0 0 0.996078 0 0 0 0 0.380392 0 0 0 0 0.419608 0 0 0 0.16 0"/>
<feBlend mode="normal" in2="BackgroundImageFix" result="effect1_dropShadow_55_474"/>
<feBlend mode="normal" in="SourceGraphic" in2="effect1_dropShadow_55_474" result="shape"/>
</filter>
</defs>
</svg>
