<svg width="20" height="20" viewBox="0 0 20 20" fill="none" xmlns="http://www.w3.org/2000/svg">
<path d="M19.5955 17.6406L15.3689 13.4133C16.3961 11.9844 16.9609 10.2769 16.9609 8.47949C16.9609 6.21548 16.0795 4.08627 14.4764 2.48453C12.8767 0.883481 10.7461 0 8.48075 0C6.21605 0 4.08615 0.881408 2.4851 2.48453C0.884052 4.08489 0.00195312 6.21479 0.00195312 8.47949C0.00195312 10.7442 0.883361 12.8734 2.4851 14.4758C4.08615 16.0769 6.21536 16.9604 8.48075 16.9604C10.2774 16.9604 11.9836 16.3983 13.4139 15.3683L17.6405 19.5956C17.9115 19.8659 18.264 20.0007 18.618 20.0007C18.9726 20.0007 19.3259 19.8659 19.5955 19.5956C20.1354 19.055 20.1354 18.1805 19.5955 17.6406ZM4.44079 12.5201C3.36098 11.4403 2.76715 10.0045 2.76715 8.47879C2.76715 6.9531 3.36098 5.51865 4.44079 4.43884C5.51991 3.35903 6.95436 2.76451 8.48075 2.76451C10.0071 2.76451 11.4423 3.35903 12.5214 4.43884C13.6012 5.51865 14.1957 6.95379 14.1957 8.47949C14.1957 10.0052 13.6019 11.4403 12.5214 12.5208C11.4416 13.6006 10.0078 14.1938 8.48075 14.1938C6.95367 14.1938 5.51853 13.5993 4.44079 12.5201Z" fill="white"/>
</svg>
