<svg width="12" height="12" viewBox="0 0 12 12" fill="none" xmlns="http://www.w3.org/2000/svg">
<g clip-path="url(#clip0_572_5547)">
<path d="M11.9341 5.79544C11.827 5.64567 9.27343 2.13281 6.02357 2.13281C2.77344 2.13281 0.173027 5.64567 0.065918 5.79544C-0.0219727 5.91778 -0.0219727 6.08255 0.065918 6.20466C0.173027 6.35442 2.77344 9.86726 6.02357 9.86726C9.27343 9.86726 11.827 6.35442 11.9341 6.20463C12.022 6.08255 12.022 5.91776 11.9341 5.79544ZM6.02357 8.46099C4.66675 8.46099 3.51573 7.35684 3.51573 6.00002C3.51573 4.6432 4.66675 3.53906 6.02357 3.53906C7.38039 3.53906 8.48453 4.6432 8.48453 6.00002C8.48453 7.35684 7.38039 8.46099 6.02357 8.46099Z" fill="#650107" fill-opacity="0.38"/>
<path d="M6.02344 4.94531C5.44172 4.94531 4.92188 5.41852 4.92188 6C4.92188 6.58172 5.44172 7.05469 6.02344 7.05469C6.60492 7.05469 7.07813 6.58172 7.07813 6C7.07813 5.41852 6.60492 4.94531 6.02344 4.94531Z" fill="#650107" fill-opacity="0.38"/>
</g>
<defs>
<clipPath id="clip0_572_5547">
<rect width="12" height="12" fill="white"/>
</clipPath>
</defs>
</svg>
