<svg width="12" height="14" viewBox="0 0 12 14" fill="none" xmlns="http://www.w3.org/2000/svg">
<path d="M2.7483 3.37964C4.51996 1.77706 7.17132 1.75255 8.96748 3.21546L7.54378 3.26937C7.36 3.27672 7.21787 3.42864 7.22522 3.61243C7.23258 3.79131 7.3796 3.93098 7.55603 3.93098C7.56093 3.93098 7.56338 3.93098 7.56828 3.93098L9.75406 3.85012C9.93294 3.84277 10.0726 3.69819 10.0726 3.51931V3.4948C10.0726 3.4899 10.0726 3.48745 10.0726 3.48255V3.4801L9.99175 1.31883C9.9844 1.13505 9.83003 0.992922 9.64869 1.00027C9.46491 1.00762 9.32279 1.15955 9.33014 1.34333L9.3816 2.69842C8.49209 1.97064 7.39675 1.54917 6.22545 1.49036C4.7748 1.41684 3.38051 1.91428 2.30477 2.88955C0.824715 4.22993 0.197407 6.26869 0.667888 8.20942C0.704645 8.36135 0.839418 8.46182 0.988894 8.46182C1.01585 8.46182 1.04035 8.45936 1.06731 8.45201C1.24374 8.40791 1.35401 8.22903 1.3099 8.05259C0.898228 6.3471 1.44712 4.55584 2.7483 3.37964Z" fill="white" stroke="white"/>
<path d="M11.3321 5.79089C11.288 5.61446 11.1091 5.50419 10.9327 5.5483C10.7563 5.59241 10.646 5.77129 10.6901 5.94772C11.1042 7.65321 10.5529 9.44446 9.25169 10.6207C8.33768 11.4465 7.19088 11.8532 6.04899 11.8532C4.95855 11.8532 3.87056 11.4832 2.99331 10.753L4.43416 10.6231C4.61549 10.606 4.75026 10.4467 4.73311 10.2629C4.71595 10.0791 4.55668 9.9468 4.37289 9.96395L2.19447 10.16C2.01314 10.1771 1.87836 10.3364 1.89551 10.5202L2.09155 12.6986C2.10625 12.8701 2.25083 13 2.41991 13C2.42971 13 2.43951 13 2.44931 12.9976C2.63064 12.9804 2.76542 12.8211 2.74826 12.6374L2.63064 11.3117C3.52015 12.0321 4.61059 12.4511 5.77454 12.5099C5.86765 12.5148 5.96077 12.5173 6.05144 12.5173C7.40162 12.5173 8.68564 12.0223 9.69522 11.1107C11.1753 9.77037 11.8026 7.73407 11.3321 5.79089Z" fill="white" stroke="white"/>
</svg>
